<?xml version="1.0" encoding="utf-8"?>
<?xml-stylesheet type="text/xsl" href="rss1.xsl"?>
<rss version="2.0" xmlns:atom="http://www.w3.org/2005/Atom" xmlns:content="http://purl.org/rss/1.0/modules/content/" xmlns:dc="http://purl.org/dc/elements/1.1/" xmlns:media="http://search.yahoo.com/mrss/">
<channel>
 <title>Getty</title>
 <link>http://www.gettyimg.com/</link>
 <atom:link href="http://www.gettyimg.com/" rel="self" type="application/rss+xml" />

 
                <item>
                <title><![CDATA[【Cinema Center】WEB-DL - Miraculous.Tales.of.Ladybug.and.Cat.Noir.S05E19.Pretension.1080p.HULU.WEB-DL.DDP5.1.H.264-Samuel]]></title>
                <link><![CDATA[https://sharemania.us/threads/miraculous-tales-of-ladybug-and-cat-noir-s05e19-pretension-1080p-hulu-web-dl-ddp5-1-h-264-samuel.224588/]]></link>
                <description><![CDATA[<article>
<blockquote class="messageText SelectQuoteContainer ugc baseHtml">
<div style="text-align: center"><b><span style="font-size: 26px">Miraculous: Tales of Ladybug and Cat Noir</span><br>
<span style="font-size: 22px">Season 5</span></b><br>
<a href="https://i.imgur.com/uVELmmO.jpg" target="_blank" class="externalLink" rel="nofollow"><img src="https://i.imgur.com/WHqPxs7.jpg" class="bbCodeImage LbImage" alt="[​IMG]" data-url="https://i.imgur.com/WHqPxs7.jpg"></a><br>
<br>
<b>Starring:</b> Cristina Valenzuela, Bryce Papenbrook, Mela Lee<br>
TVY7 • Fantasy, Kids • TV Series • 2015<br>
<br>
<div class="bbCodeBlock bbCodeQuote">
<aside>
<blockquote class="quoteContainer"><div class="quote"><b><span style="font-size: 15px"><span style="font-family: 'Arial'">Description</span></span></b><br>
Parisian high schoolers, Marinette and Adrien, are actually superheroes, Ladybug and Cat Noir! Each armed with their powerful jewel "Miraculous," their mission is to stop the villainous Hawk Moth from wreaking havoc on the city, all while going to school and maintaining their secret identities.</div><div class="quoteExpand">Click to expand...</div></blockquote>
</aside>
</div>
<div class="bbCodeBlock bbCodeQuote">
<aside>
<blockquote class="quoteContainer"><div class="quote"><b><span style="font-size: 15px"><span style="font-family: 'Arial'">More Information</span></span></b><br>
<b>Starring:</b> Cristina Valenzuela, Bryce Papenbrook, Mela Lee, Keith Silverstein, Max Mittelman<br>
<br>
TVY7 • Kids, Fantasy, Adventure, Animation, Family, Superheroes • TV Series (2015)<br>
<br>
<i><b>Total:</b></i> 1 Episode</div><div class="quoteExpand">Click to expand...</div></blockquote>
</aside>
</div>
<div class="bbCodeBlock bbCodeQuote">
<aside>
<blockquote class="quoteContainer"><div class="quote"><b><span style="font-size: 15px"><span style="font-family: 'Arial'">Trailers</span></span></b><br>
<div data-s9e-mediaembed="youtube" style="display:inline-block;width:100%;max-width:640px"><div style="overflow:hidden;position:relative;padding-bottom:56.25%"><iframe allowfullscreen="" scrolling="no" style="background:url(https://i.ytimg.com/vi/qwGAIVSsLhE/hqdefault.jpg) 50% 50% / cover;border:0;height:100%;left:0;position:absolute;width:100%" src="https://www.youtube.com/embed/qwGAIVSsLhE"></iframe></div></div></div><div class="quoteExpand quoteCut">Click to expand...</div></blockquote>
</aside>
</div>
<div class="bbCodeBlock bbCodeQuote">
<aside>
<blockquote class="quoteContainer"><div class="quote"><b><span style="font-size: 15px">Source</span></b><br>
<img src="https://i.imgur.com/4uiLEFv.png" class="bbCodeImage LbImage" alt="[​IMG]" data-url="https://i.imgur.com/4uiLEFv.png" style=""></div><div class="quoteExpand">Click to expand...</div></blockquote>
</aside>
</div>
<div class="bbCodeBlock bbCodeQuote">
<aside>
<blockquote class="quoteContainer"><div class="quote"><b><span style="font-size: 15px">Release Name</span></b><br>
Miraculous.Tales.of.Ladybug.and.Cat.Noir.S05E19.Pretension.1080p.HULU.WEB-DL.DDP5.1.H.264-Samuel</div><div class="quoteExpand">Click to expand...</div></blockquote>
</aside>
</div>
<div class="ToggleTriggerAnchor bbCodeSpoilerContainer">
<button type="button" class="button bbCodeSpoilerButton ToggleTrigger Tooltip JsOnly" data-target="> .SpoilerTarget"><span>Spoiler: <span class="SpoilerTitle">Media Information</span></span></button>
<div class="SpoilerTarget bbCodeSpoilerText"><span style="text-decoration: underline"><b>Episode 19: Pretension</b></span><br>
General<br>
Complete name : Miraculous.Tales.of.Ladybug.and.Cat.Noir.S05E19.Pretension.1080p.HULU.WEB-DL.DDP5.1.H.264-Samuel.mkv<br>
Format : Matroska<br>
Format version : Version 4<br>
File size : 720 MiB<br>
Duration : 24 min 8 s<br>
Overall bit rate : 4 169 kb/s<br>
Frame rate : 23.976 FPS<br>
Encoded date : 2023-07-15 20:31:09 UTC<br>
Writing application : mkvmerge v72.0.0 ('Minuano (Six-eight)') 64-bit<br>
Writing library : libebml v1.4.4 + libmatroska v1.7.1<br>
<br>
Video<br>
ID : 1<br>
Format : AVC<br>
Format/Info : Advanced Video Codec<br>
Format profile : High@L4<br>
Format settings : CABAC / 4 Ref Frames<br>
Format settings, CABAC : Yes<br>
Format settings, Reference frames : 4 frames<br>
Codec ID : V_MPEG4/ISO/AVC<br>
Duration : 24 min 8 s<br>
Bit rate : 3 911 kb/s<br>
Width : 1 920 pixels<br>
Height : 1 080 pixels<br>
Display aspect ratio : 16:9<br>
Frame rate mode : Constant<br>
Frame rate : 23.976 (24000/1001) FPS<br>
Color space : YUV<br>
Chroma subsampling : 4:2:0<br>
Bit depth : 8 bits<br>
Scan type : Progressive<br>
Bits/(Pixel*Frame) : 0.079<br>
Stream size : 675 MiB (94%)<br>
Default : Yes<br>
Forced : No<br>
<br>
Audio<br>
ID : 2<br>
Format : E-AC-3<br>
Format/Info : Enhanced AC-3<br>
Commercial name : Dolby Digital Plus<br>
Codec ID : A_EAC3<br>
Duration : 24 min 8 s<br>
Bit rate mode : Constant<br>
Bit rate : 256 kb/s<br>
Channel(s) : 6 channels<br>
Channel layout : L R C LFE Ls Rs<br>
Sampling rate : 48.0 kHz<br>
Frame rate : 31.250 FPS (1536 SPF)<br>
Compression mode : Lossy<br>
Stream size : 44.2 MiB (6%)<br>
Language : English<br>
Service kind : Complete Main<br>
Default : Yes<br>
Forced : No<br>
<br>
Text<br>
ID : 3<br>
Format : UTF-8<br>
Codec ID : S_TEXT/UTF8<br>
Codec ID/Info : UTF-8 Plain Text<br>
Duration : 24 min 5 s<br>
Bit rate : 95 b/s<br>
Frame rate : 0.400 FPS<br>
Count of elements : 578<br>
Stream size : 16.8 KiB (0%)<br>
Language : English<br>
Default : No<br>
Forced : No</div>
</div><br>
<b>Screenshots</b><br>
<img src="https://i.imgur.com/r5qfLrZ.png" class="bbCodeImage LbImage" alt="[​IMG]" data-url="https://i.imgur.com/r5qfLrZ.png" style=""><br>
<br>
<b>Download</b><br>
<div class="bbCodeBlock bbCodeVfcHH HiddenContent">
<div class="attribution type">Hidden Content:</div>
<blockquote>You must reply before you can see the hidden data contained here.</blockquote>
</div></div>
<div class="messageTextEndMarker">&nbsp;</div>
</blockquote>
</article>]]></description>
                <author><![CDATA[Samuel]]></author>
                </item>

                </channel></rss>